<svg xmlns="http://www.w3.org/2000/svg" style="display: none;">
    <!-- Workspace Icon -->
    <symbol id="icon-workspace" viewBox="0 0 180 180" fill="none">
        <path
            d="M144.248 149.062c7.5 5.626 18.75 1.876 8.437-8.437-30.937-30-24.375-112.5-62.812-112.5-38.438 0-31.875 82.5-62.813 112.5-11.25 11.25.938 14.063 8.438 8.437 29.062-19.687 27.187-54.375 54.375-54.375 27.187 0 25.312 34.688 54.375 54.375Z"
            fill="currentColor" />
    </symbol>

    <!-- Add/Plus Icon -->
    <symbol id="icon-plus" viewBox="0 0 24 24" fill="none" stroke="currentColor" stroke-width="2" stroke-linecap="round" stroke-linejoin="round">
        <path d="M12 5v14M5 12h14" />
    </symbol>

    <!-- History Icon -->
    <symbol id="icon-history" viewBox="0 0 24 24" fill="none" stroke="currentColor" stroke-width="2" stroke-linecap="round" stroke-linejoin="round">
        <path d="M3 12a9 9 0 1 0 9-9 9.75 9 0 0 0-6.74 2.74L3 8"></path>
        <path d="M3 3v5h5"></path>
        <path d="M12 7v5l4 2"></path>
    </symbol>

    <!-- More Icon -->
    <symbol id="icon-more" viewBox="0 0 24 24" fill="currentColor">
        <circle cx="12" cy="12" r="1" />
        <circle cx="19" cy="12" r="1" />
        <circle cx="5" cy="12" r="1" />
    </symbol>

    <!-- Close Icon -->
    <symbol id="icon-close" viewBox="0 0 24 24" fill="none" stroke="currentColor" stroke-width="2" stroke-linecap="round" stroke-linejoin="round">
        <path d="M18 6L6 18M6 6l12 12" />
    </symbol>

    <!-- Scroll Down Icon -->
    <symbol id="icon-scroll-down" viewBox="0 0 24 24" fill="none" stroke="currentColor" stroke-width="2" stroke-linecap="round" stroke-linejoin="round">
        <path d="M12 5v14M19 12l-7 7-7-7" />
    </symbol>

    <!-- Mode Icon (Lightning) -->
    <symbol id="icon-mode" viewBox="0 0 24 24" fill="none" stroke="currentColor" stroke-width="2" stroke-linecap="round" stroke-linejoin="round">
        <path d="M13 2L3 14h9l-1 8 10-12h-9l1-8z" />
    </symbol>

    <!-- Chevron Down Icon -->
    <symbol id="icon-chevron-down" viewBox="0 0 24 24" fill="none" stroke="currentColor" stroke-width="2" stroke-linecap="round" stroke-linejoin="round">
        <path d="M7 10l5 5 5-5" />
    </symbol>

    <!-- Model Info Icon -->
    <symbol id="icon-model" viewBox="0 0 24 24" fill="none" stroke="currentColor" stroke-width="2" stroke-linecap="round" stroke-linejoin="round">
        <circle cx="12" cy="12" r="10" />
        <path d="M12 16v-4M12 8h.01" />
    </symbol>

    <!-- Quota Icon -->
    <symbol id="icon-quota" viewBox="0 0 24 24" fill="none" stroke="currentColor" stroke-width="2" stroke-linecap="round" stroke-linejoin="round">
        <path d="M4.5 16.5c-1.5 1.26-2 5-2 5s3.74-.5 5-2c.71-.84.7-2.13-.09-2.91a2.18 2.18 0 0 0-2.91-.09z" />
        <path d="M12 15l-3-3a22 22 0 0 1 2-3.95A12.88 12.88 0 0 1 22 2c0 2.72-.78 7.5-6 11a22.35 22.35 0 0 1-4 2z" />
        <path d="M9 12H4s.55-3.03 2-4c1.62-1.08 5 0 5 0" />
        <path d="M12 15v5s3.03-.55 4-2c1.08-1.62 0-5 0-5" />
    </symbol>

    <!-- Send Icon -->
    <symbol id="icon-send" viewBox="0 0 24 24" fill="none" stroke="currentColor" stroke-width="2" stroke-linecap="round" stroke-linejoin="round">
        <path d="M22 2L11 13M22 2l-7 20-4-9-9-4 20-7z" />
    </symbol>
</svg>
